<svg width="140" height="62" viewBox="0 0 140 62" fill="none" xmlns="http://www.w3.org/2000/svg">
<path d="M26.3491 8.62659C27.9905 6.57356 29.1044 3.81694 28.8106 1C26.4078 1.11948 23.4757 2.5852 21.7781 4.63984C20.2539 6.39933 18.9049 9.27137 19.2566 11.9702C21.9538 12.2042 24.6485 10.622 26.3491 8.62659Z" fill="black"/>
<path d="M28.78 12.4971C24.863 12.2637 21.5325 14.7202 19.6619 14.7202C17.7903 14.7202 14.9258 12.6147 11.8277 12.6714C7.79519 12.7306 4.05352 15.0106 2.00722 18.6369C-2.20169 25.8912 0.89649 36.6518 4.98943 42.56C6.97705 45.483 9.37247 48.7014 12.5288 48.5858C15.511 48.4688 16.6799 46.6548 20.3049 46.6548C23.9273 46.6548 24.9802 48.5858 28.137 48.5273C31.4108 48.4688 33.4574 45.6029 35.445 42.677C37.7252 39.345 38.6586 36.1276 38.7173 35.951C38.6586 35.8925 32.4047 33.4933 32.3467 26.2993C32.2876 20.2757 37.2567 17.4105 37.4906 17.2328C34.6845 13.0826 30.3 12.6147 28.78 12.4971Z" fill="black"/>
<path d="M62.8867 4.34474C71.4003 4.34474 77.3287 10.2133 77.3287 18.7574C77.3287 27.332 71.2783 33.231 62.6732 33.231H53.247V48.2214H46.4365V4.34473H62.8867V4.34474ZM53.247 27.5144H61.0615C66.991 27.5144 70.3657 24.3221 70.3657 18.7879C70.3657 13.2543 66.991 10.0918 61.092 10.0918H53.247V27.5144V27.5144Z" fill="black"/>
<path d="M79.1084 39.1303C79.1084 33.5351 83.3957 30.0994 90.9979 29.6736L99.7544 29.1569V26.6942C99.7544 23.1365 97.3521 21.0081 93.3392 21.0081C89.5375 21.0081 87.1657 22.8321 86.5886 25.6907H80.3858C80.7506 19.9131 85.676 15.6562 93.582 15.6562C101.336 15.6562 106.291 19.7612 106.291 26.1769V48.2217H99.9972V42.9613H99.8459C97.9914 46.5191 93.9469 48.7689 89.751 48.7689C83.4872 48.7689 79.1084 44.8769 79.1084 39.1303ZM99.7544 36.2418V33.7181L91.8789 34.2043C87.9563 34.4782 85.737 36.2113 85.737 38.9479C85.737 41.745 88.0478 43.5695 91.5751 43.5695C96.1662 43.5695 99.7544 40.4071 99.7544 36.2418Z" fill="black"/>
<path d="M112.234 59.9887V54.6673C112.719 54.7888 113.814 54.7888 114.362 54.7888C117.402 54.7888 119.044 53.5119 120.047 50.2281C120.047 50.1671 120.625 48.2821 120.625 48.2516L109.071 16.2334H116.186L124.275 42.2617H124.395L132.484 16.2334H139.417L127.436 49.8932C124.7 57.6474 121.538 60.1406 114.909 60.1406C114.362 60.1406 112.719 60.0796 112.234 59.9887Z" fill="black"/>
</svg>
