<svg width="90" height="90" viewBox="0 0 90 90" fill="none" xmlns="http://www.w3.org/2000/svg">
<path d="M82.5 43.6459C82.5 52.2937 78.51 60.0182 72.2475 65.1208C66.1875 71.1543 57.9263 75.1667 48.75 75.1667C33.8663 75.1667 28.1025 71.0616 23.6438 66.6932C23.6213 66.6709 23.595 66.6487 23.5725 66.6264C23.5613 66.6153 23.5463 66.6042 23.535 66.5893L23.5388 66.5782C22.905 65.9144 22.5 65.0281 22.5 64.0417C22.5 61.9947 24.18 60.3334 26.25 60.3334H34.2975C31.4963 55.6831 30 49.9167 30 43.6459C30 43.008 30.0375 42.385 30.0675 41.7583L30 41.7917C18.75 41.7917 11.25 26.9584 11.25 19.5417C11.25 17.4947 12.93 15.8334 15 15.8334C15 15.8334 53.7113 15.8334 54.375 15.8334C69.2925 15.8334 81.465 27.3255 82.4063 41.8436C82.4063 41.8436 82.5 43.3195 82.5 43.6459Z" fill="#8D6E63"/>
<path opacity="0.3" d="M25.3125 25.1042C25.3125 23.569 26.5725 22.323 28.125 22.323C29.6775 22.323 30.9375 23.569 30.9375 25.1042C30.9375 26.6395 29.6775 27.8855 28.125 27.8855C26.5725 27.8855 25.3125 26.6395 25.3125 25.1042ZM52.5 60.3334C52.5262 58.431 53.1937 49.2084 63.75 49.2084V41.7917C48.9188 41.7917 45 53.9217 45 60.3334H26.25C24.1875 60.3334 22.5 62.0021 22.5 64.0417C22.5 65.0393 22.9125 65.8959 23.55 66.5634V66.6042C23.55 66.6042 23.55 66.6042 23.5875 66.6413L23.625 66.6783C28.0875 71.0505 33.8625 75.1667 48.75 75.1667C57.9375 75.1667 66.1875 71.1617 72.2587 65.1171C73.9875 63.708 75.5212 62.1134 76.875 60.3334H52.5ZM15 15.8334C12.9375 15.8334 11.25 17.5021 11.25 19.5417C11.25 20.58 11.4 21.7667 11.7 23.0275C12.15 23.1759 12.6375 23.25 13.125 23.25C16.2375 23.25 18.75 20.7655 18.75 17.6875C18.75 17.02 18.6375 16.4267 18.4125 15.8334C16.3125 15.8334 15 15.8334 15 15.8334Z" fill="black"/>
</svg>
