<svg width="157" height="62" viewBox="0 0 157 62" fill="none" xmlns="http://www.w3.org/2000/svg">
<path d="M73.2381 29.9433V48.0953H67.4775V3.27051H82.7492C86.6196 3.27051 89.9199 4.56065 92.6202 7.14093C95.3805 9.7212 96.7606 12.8715 96.7606 16.5919C96.7606 20.4023 95.3805 23.5527 92.6202 26.1029C89.9499 28.6532 86.6496 29.9133 82.7492 29.9133H73.2381V29.9433ZM73.2381 8.7911V24.4228H82.8692C85.1494 24.4228 87.0696 23.6427 88.5698 22.1125C90.0999 20.5824 90.88 18.7221 90.88 16.6219C90.88 14.5517 90.0999 12.7215 88.5698 11.1914C87.0696 9.60119 85.1794 8.8211 82.8692 8.8211H73.2381V8.7911Z" fill="#3C4043"/>
<path d="M111.822 16.4121C116.082 16.4121 119.443 17.5522 121.903 19.8325C124.363 22.1127 125.593 25.233 125.593 29.1935V48.0955H120.103V43.835H119.863C117.492 47.3454 114.312 49.0856 110.352 49.0856C106.961 49.0856 104.141 48.0955 101.861 46.0853C99.5806 44.075 98.4404 41.5848 98.4404 38.5845C98.4404 35.4041 99.6406 32.8839 102.041 31.0237C104.441 29.1335 107.651 28.2034 111.642 28.2034C115.062 28.2034 117.883 28.8334 120.073 30.0936V28.7734C120.073 26.7632 119.293 25.083 117.702 23.6729C116.112 22.2627 114.252 21.5727 112.122 21.5727C108.912 21.5727 106.361 22.9228 104.501 25.6531L99.4305 22.4727C102.221 18.4223 106.361 16.4121 111.822 16.4121ZM104.381 38.6745C104.381 40.1746 105.011 41.4348 106.301 42.4249C107.561 43.415 109.062 43.925 110.772 43.925C113.202 43.925 115.362 43.0249 117.252 41.2247C119.143 39.4245 120.103 37.3243 120.103 34.8941C118.303 33.4839 115.812 32.7638 112.602 32.7638C110.262 32.7638 108.311 33.3339 106.751 34.444C105.161 35.6141 104.381 37.0243 104.381 38.6745Z" fill="#3C4043"/>
<path d="M156.917 17.4023L137.715 61.567H131.774L138.915 46.1154L126.254 17.4023H132.525L141.646 39.4247H141.766L150.646 17.4023H156.917Z" fill="#3C4043"/>
<path d="M50.3239 26.2825C50.3239 24.4043 50.1559 22.6071 49.8438 20.8789H25.6973V30.78L39.6037 30.783C39.0397 34.0773 37.2245 36.8856 34.4432 38.7578V45.1815H42.7211C47.5546 40.708 50.3239 34.0953 50.3239 26.2825Z" fill="#4285F4"/>
<path d="M34.4468 38.7582C32.1425 40.3123 29.1752 41.2214 25.7038 41.2214C18.9981 41.2214 13.3095 36.703 11.2723 30.6123H2.7334V37.237C6.96385 45.6319 15.6588 51.3925 25.7038 51.3925C32.6466 51.3925 38.4792 49.1093 42.7246 45.1789L34.4468 38.7582Z" fill="#34A853"/>
<path d="M10.4681 25.6975C10.4681 23.9873 10.7531 22.3341 11.2722 20.78V14.1553H2.73329C0.9841 17.6266 0 21.5451 0 25.6975C0 29.8499 0.987101 33.7684 2.73329 37.2397L11.2722 30.615C10.7531 29.0609 10.4681 27.4077 10.4681 25.6975Z" fill="#FABB05"/>
<path d="M25.7038 10.1711C29.4932 10.1711 32.8866 11.4762 35.5659 14.0265L42.9017 6.69671C38.4462 2.54727 32.6376 0 25.7038 0C15.6618 0 6.96385 5.76061 2.7334 14.1555L11.2723 20.7802C13.3095 14.6896 18.9981 10.1711 25.7038 10.1711Z" fill="#E94235"/>
</svg>
