<svg width="144" height="62" viewBox="0 0 144 62" fill="none" xmlns="http://www.w3.org/2000/svg">
<path d="M71.0519 8.47469L61.4636 53.2993H49.8685L59.4604 8.47469H71.0519ZM119.838 37.4165L125.941 20.5865L129.453 37.4165H119.838ZM132.776 53.2993H143.5L134.139 8.47469H124.24C122.014 8.47469 120.137 9.77029 119.306 11.7633L101.905 53.2993H114.081L116.499 46.6035H131.376L132.776 53.2993ZM102.511 38.6641C102.56 26.8339 86.1517 26.1819 86.2646 20.8972C86.2996 19.2889 87.8313 17.5791 91.1829 17.1421C92.8445 16.9244 97.4223 16.7583 102.614 19.1482L104.651 9.64316C101.861 8.63074 98.2716 7.65591 93.8046 7.65591C82.3434 7.65591 74.2777 13.749 74.2095 22.4731C74.1355 28.9262 79.9668 32.527 84.3597 34.6712C88.8791 36.8674 90.3953 38.2781 90.3784 40.2426C90.346 43.2497 86.7738 44.5771 83.4352 44.629C77.6072 44.7185 74.2252 43.0518 71.5288 41.7984L69.4274 51.6183C72.1366 52.8614 77.1375 53.9458 82.3225 54C94.5046 54 102.473 47.9829 102.511 38.6641M54.484 8.47469L35.6969 53.2993H23.4398L14.1947 17.5271C13.6332 15.3235 13.1456 14.5168 11.4387 13.5887C8.65186 12.0764 4.04902 10.6582 0 9.77747L0.275114 8.47469H20.0058C22.5208 8.47469 24.7815 10.1489 25.3524 13.0453L30.2352 38.9833L42.3028 8.47469H54.484Z" fill="#1434CB"/>
</svg>
