<svg width="87" height="62" viewBox="0 0 87 62" fill="none" xmlns="http://www.w3.org/2000/svg">
<path d="M54.84 9.7041H31.4951V51.6556H54.84V9.7041Z" fill="#FF5F00"/>
<path d="M32.9772 30.6799C32.9735 26.6397 33.889 22.6516 35.6545 19.0175C37.42 15.3834 39.9891 12.1986 43.1673 9.70418C39.2315 6.61052 34.5047 4.68662 29.5271 4.15238C24.5496 3.61813 19.5221 4.49508 15.0194 6.68302C10.5167 8.87096 6.7204 12.2816 4.06443 16.5251C1.40846 20.7686 0 25.6738 0 30.6799C0 35.6861 1.40846 40.5912 4.06443 44.8347C6.7204 49.0782 10.5167 52.4889 15.0194 54.6768C19.5221 56.8648 24.5496 57.7417 29.5271 57.2075C34.5047 56.6732 39.2315 54.7493 43.1673 51.6557C39.9891 49.1612 37.42 45.9764 35.6545 42.3423C33.8891 38.7083 32.9735 34.7201 32.9772 30.6799V30.6799Z" fill="#EB001B"/>
<path d="M86.333 30.6799C86.3332 35.686 84.9249 40.5911 82.269 44.8346C79.6132 49.0781 75.817 52.4888 71.3144 54.6768C66.8118 56.8647 61.7844 57.7417 56.8069 57.2075C51.8295 56.6732 47.1027 54.7493 43.167 51.6557C46.3425 49.1587 48.9096 45.9734 50.6747 42.3399C52.4399 38.7064 53.3571 34.7195 53.3571 30.6799C53.3571 26.6403 52.4399 22.6535 50.6747 19.0199C48.9096 15.3864 46.3425 12.2011 43.167 9.70417C47.1027 6.61051 51.8295 4.68661 56.8069 4.15237C61.7844 3.61813 66.8118 4.49512 71.3144 6.68308C75.817 8.87105 79.6132 12.2817 82.269 16.5252C84.9249 20.7687 86.3332 25.6738 86.333 30.6799V30.6799Z" fill="#F79E1B"/>
<path d="M83.7876 47.2123V46.3534H84.1339V46.1785H83.252V46.3534H83.5984V47.2123H83.7876ZM85.5 47.2123V46.1768H85.2296L84.9187 46.889L84.6076 46.1768H84.3371V47.2123H84.528V46.4312L84.8196 47.1046H85.0176L85.3092 46.4295V47.2123H85.5Z" fill="#F79E1B"/>
</svg>
